<?xml version="1.0" encoding="UTF-8" standalone="no"?>
<svg
   width="3.5175319mm"
   height="3.5175323mm"
   viewBox="0 0 3.5175319 3.5175323"
   version="1.1"
   id="svg1"
   xmlns="http://www.w3.org/2000/svg"
   xmlns:svg="http://www.w3.org/2000/svg">
  <defs
     id="defs1">
    <clipPath
       clipPathUnits="userSpaceOnUse"
       id="clipPath1">
      <circle
         style="fill:#000000;fill-opacity:1;stroke-width:0.264583"
         id="circle2"
         r="1.7587659"
         cy="14.094531"
         cx="10.261026" />
    </clipPath>
  </defs>
  <circle
     style="fill:#000000;fill-opacity:1;stroke-width:0.264583"
     id="path1-8"
     r="1.7587659"
     cy="1.7587657"
     cx="1.7587659" />
  <path
     style="mix-blend-mode:normal;fill:none;fill-opacity:1;stroke:#ffffff;stroke-width:0.15;stroke-linecap:butt;stroke-linejoin:round;stroke-dasharray:none;stroke-opacity:1"
     d="m 8.5768863,13.364207 c 0,0 0.5419523,-0.354566 0.6848002,-0.03052 0.1428478,0.324051 -0.3773016,1.288521 -0.3773016,1.288521 0,0 0.8768647,-0.305888 0.9796168,-0.55667 0.1027521,-0.250779 -0.1270235,-0.315701 -0.2463703,-0.04132 -0.1193467,0.274384 -0.093694,0.596728 0.1708537,0.462729 0.2645479,-0.133998 0.4556099,-0.562391 0.4556099,-0.562391 0.13904,-0.192517 -0.07564,0.568693 -0.02847,0.633583 0.196673,0.07201 0.485362,-0.236853 0.576632,-0.46273 0.09127,-0.225874 -0.124612,-0.339057 -0.227806,-0.128144 -0.103194,0.210917 0.19863,0.451411 0.405778,0.270517 0.207146,-0.180895 0.291876,-0.31323 0.291876,-0.31323 0,0 -0.147591,0.453941 0.0427,0.505441 0.190285,0.0515 0.441372,-0.491203 0.441372,-0.491203 -0.124163,0.355908 -0.03825,0.51085 -0.462729,1.067834 -0.42448,0.556984 -0.997801,0.440848 -0.718994,0.04981 0.278807,-0.391035 1.388184,-0.242042 1.388184,-0.242042"
     id="path2"
     clip-path="url(#clipPath1)"
     transform="translate(-8.5022604,-12.335766)" />
</svg>
