<?xml version="1.0" encoding="UTF-8" standalone="no"?>
<!-- Created with Inkscape (http://www.inkscape.org/) -->

<svg
   width="52.924351mm"
   viewBox="0 0 52.924351 17.159422"
   version="1.1"
   xml:space="preserve"
   height="17.159422mm"
   id="svg4"
   xmlns="http://www.w3.org/2000/svg"
   xmlns:svg="http://www.w3.org/2000/svg"><defs
     id="defs1" /><g
     id="g4"
     transform="translate(-5.4289981,-4.0637683)"><path
       d="M 9.0855286,7.3566506 C 12.475846,4.9748292 17.82665,6.789283 18.954723,10.809849 c 0.796143,2.468658 -0.20025,5.304141 -2.207126,6.896507 0.616251,0.411991 1.51899,0.531277 1.890515,1.202035 -0.425968,1.576627 -3.033647,1.445266 -3.723815,0.06586 -1.785295,0.417953 -4.434502,0.826915 -6.0730448,-0.749145 -2.103946,-1.639507 0.4671883,-3.781633 2.4118658,-3.142593 1.50529,0.410417 1.42544,-0.07586 1.124946,-1.284924 -0.16675,-1.331683 2.624035,-2.79786 2.430963,-0.834203 -0.07507,0.97659 -0.317003,2.514791 0.980871,1.004959 1.959128,-2.064999 0.04181,-5.5012122 -2.450704,-6.0351225 C 10.912677,7.1244634 7.7486499,8.8767657 7.6400774,11.530407 7.343832,12.628631 9.9372934,13.694653 8.0772072,14.311058 6.3697541,15.019969 6.4372924,11.99146 6.6425905,10.906261 6.9434204,9.4598629 7.850258,8.161802 9.0855286,7.3566506 Z m 12.7640294,0.765175 c 2.882717,-3.0765929 8.483451,-2.048382 10.333878,1.6558068 1.8513,3.1440936 0.382777,7.6939836 -3.071711,8.9955056 -3.540591,1.568872 -8.043209,-0.745322 -8.873022,-4.525033 -0.57994,-2.13967 0.0027,-4.5726453 1.610855,-6.1262794 z M 35.62112,6.5909464 c 1.394549,0.1248664 1.09043,1.6883716 1.147646,2.6704237 0.0457,2.8730809 0.164538,5.7481139 0.164244,8.6199659 -0.274816,1.869222 -3.150071,1.149952 -2.689694,-0.609082 0.08791,-3.2575 0.11428,-6.519386 0.24068,-9.7741412 0.106438,-0.5198437 0.601818,-0.9292654 1.137124,-0.9071664 z m -9.504627,1.4917209 c -2.870158,-0.3041859 -5.175345,2.9556077 -4.041503,5.5757147 0.928949,2.782067 4.943712,3.91067 7.017801,1.706941 2.299399,-2.159231 0.962427,-6.3749837 -2.007545,-7.1179201 -0.315264,-0.091501 -0.641434,-0.146604 -0.968753,-0.1647356 z"
       style="fill:none;stroke:#ffffff;stroke-width:2.2;stroke-linejoin:round;stroke-miterlimit:4;stroke-dasharray:none"
       id="path1" /><path
       d="M 9.0855286,7.3566506 C 12.475846,4.9748292 17.82665,6.789283 18.954723,10.809849 c 0.796143,2.468658 -0.20025,5.304141 -2.207126,6.896507 0.616251,0.411991 1.51899,0.531277 1.890515,1.202035 -0.425968,1.576627 -3.033647,1.445266 -3.723815,0.06586 -1.785295,0.417953 -4.434502,0.826915 -6.0730448,-0.749145 -2.103946,-1.639507 0.4671883,-3.781633 2.4118658,-3.142593 1.50529,0.410417 1.42544,-0.07586 1.124946,-1.284924 -0.16675,-1.331683 2.624035,-2.79786 2.430963,-0.834203 -0.07507,0.97659 -0.317003,2.514791 0.980871,1.004959 1.959128,-2.064999 0.04181,-5.5012122 -2.450704,-6.0351225 C 10.912677,7.1244634 7.7486499,8.8767657 7.6400774,11.530407 7.343832,12.628631 9.9372934,13.694653 8.0772072,14.311058 6.3697541,15.019969 6.4372924,11.99146 6.6425905,10.906261 6.9434204,9.4598629 7.850258,8.161802 9.0855286,7.3566506 Z m 12.7640294,0.765175 c 2.882717,-3.0765929 8.483451,-2.048382 10.333878,1.6558068 1.8513,3.1440936 0.382777,7.6939836 -3.071711,8.9955056 -3.540591,1.568872 -8.043209,-0.745322 -8.873022,-4.525033 -0.57994,-2.13967 0.0027,-4.5726453 1.610855,-6.1262794 z M 35.62112,6.5909464 c 1.394549,0.1248664 1.09043,1.6883716 1.147646,2.6704237 0.0457,2.8730809 0.164538,5.7481139 0.164244,8.6199659 -0.274816,1.869222 -3.150071,1.149952 -2.689694,-0.609082 0.08791,-3.2575 0.11428,-6.519386 0.24068,-9.7741412 0.106438,-0.5198437 0.601818,-0.9292654 1.137124,-0.9071664 z m -9.504627,1.4917209 c -2.870158,-0.3041859 -5.175345,2.9556077 -4.041503,5.5757147 0.928949,2.782067 4.943712,3.91067 7.017801,1.706941 2.299399,-2.159231 0.962427,-6.3749837 -2.007545,-7.1179201 -0.315264,-0.091501 -0.641434,-0.146604 -0.968753,-0.1647356 z"
       id="path2" /><g
       fill="#f7a41d"
       transform="matrix(0.12256729,0,0,0.12256729,39.600555,4.0637686)"
       id="g2"><g
         id="g3"
         style="stroke:none;stroke-opacity:1"><path
           id="polygon3"
           d="M 12,117 4,106 31,95 Z m 8,-17 -8,17 H 0 V 22 H 46 L 33,33 28,44 h -6 v 51 h 9 z M 28,44 19,30 46,22 Z" /></g><g
         id="g8"
         style="stroke:none;stroke-opacity:1"><path
           id="polygon8"
           d="M 150,0 52,117 3,140 101,22 Z m -50,104 -3,13 H 42 V 95 h 74 z m -3,13 -7,-13 26,-9 z M 111,22 V 44 H 37 L 56,32 V 22 Z M 62,36 37,44 56,22 Z" /></g><g
         id="g11"
         style="stroke:none;stroke-opacity:1"><path
           id="polygon11"
           d="m 130,110 -24,7 19,-22 z m 1,-65 h -9 l 10,-9 9,-14 h 12 v 95 h -47 l 14,-12 5,-10 h 6 z m 9,-5 -18,5 19,-23 z" /></g></g></g></svg>
